PathFileType	4	(X/Y/Z)	Walk1_0-155.trc
DataRate	CameraRate	NumFrames	NumMarkers	Units	OrigDataRate	OrigDataStartFrame	OrigNumFrames
30	30	7	22	m	30	116	155
Frame#	Time	Hip			RHip			RKnee			RAnkle			RBigToe			RSmallToe			RHeel			LHip			LKnee			LAnkle			LBigToe			LSmallToe			LHeel			Neck			Head			Nose			RShoulder			RElbow			RWrist			LShoulder			LElbow			LWrist		
		X1	Y1	Z1	X2	Y2	Z2	X3	Y3	Z3	X4	Y4	Z4	X5	Y5	Z5	X6	Y6	Z6	X7	Y7	Z7	X8	Y8	Z8	X9	Y9	Z9	X10	Y10	Z10	X11	Y11	Z11	X12	Y12	Z12	X13	Y13	Z13	X14	Y14	Z14	X15	Y15	Z15	X16	Y16	Z16	X17	Y17	Z17	X18	Y18	Z18	X19	Y19	Z19	X20	Y20	Z20	X21	Y21	Z21	X22	Y22	Z22
117	3.9	0.9782857325371673	0.9108329636170419	0.4208212177814754	0.9551497092751258	0.8918979959399601	0.5184372417129456	0.9034207451901455	0.5239806608438357	0.4792643371033372	0.8423699647908256	0.11826403198324	0.4384479347818506	1.0419626220266227	0.05905249883759752	0.4719534198284193	0.9987763367223331	0.04437207574835372	0.5139650864765016	0.791756281308747	0.041939711963442795	0.4150836971308453	0.9896358809351827	0.8956573154402581	0.2987817117939944	1.1649240652090866	0.577671898474863	0.28053415592730535	1.0001108281386444	0.21823196686808113	0.3167498455495847	1.2071727685882747	0.08554880401193836	0.3207083876412561	1.1282287054406133	0.10196419797445085	0.2354790644512521	0.9619185128872989	0.15349609283801066	0.332823538268369	0.901952099826375	1.5949285151195953	0.3917174614047074	0.9839660634667915	1.8500055952208347	0.4243223291579554	1.0477471784599914	1.6825059732935528	0.4066549760052406	0.8786718197037434	1.470071167303773	0.5758946596103942	0.9915715941787456	1.1892727429654117	0.6527183807132011	1.2751297763447103	0.9576466870547056	0.6343345520410543	0.8658960007370621	1.4765651869622454	0.19604349768803314	0.8816206197770081	1.157555536301393	0.1524229673385045	0.882201035957107	0.9153365718441262	0.1316585756684434
118	3.933333333333333	1.0188854522915842	0.905878261811584	0.4237270154158818	0.9964273144727647	0.888990880666176	0.5177688734221729	0.9185749696712503	0.5198605169883561	0.4759845481241632	0.8463830235731885	0.12233279923540367	0.4408683431286477	1.0428315561160357	0.03609329825165223	0.45157983645119393	1.027467387643068	0.0567439273048342	0.5142021489664919	0.8148736921971217	0.03586753107885763	0.41991181937591104	1.035170434003266	0.8914022942196269	0.30411633826243484	1.268232429947545	0.5761329195932903	0.3340673238251311	1.12840638313285	0.16720190172507043	0.32770339758330935	1.365003957874394	0.06220461773356159	0.3371643870273627	1.326086363102446	0.07850734256023954	0.2906649594742523	1.083282328145697	0.08849014885751025	0.34816782726085954	0.9463390627613321	1.5937940711965959	0.39181329176609847	1.0367066250756163	1.8507691659964125	0.428801806252411	1.089965557872932	1.6823234982887643	0.41015715112967505	0.9187049619427208	1.4700787308931285	0.5716623959604494	1.0434800779661193	1.1899389309658577	0.6536318107070649	1.302853510280971	0.988513491679106	0.672008152252602	0.9042377250306532	1.4743628023682223	0.19987473464374297	0.9143357102890618	1.1562872600686245	0.15018147180462785	0.9055970538687335	0.9127731252542299	0.12801753860561538
119	3.966666666666667	1.064612523442916	0.897659515496905	0.4252516941686315	1.04061205635403	0.8777208271595922	0.516468624277448	0.9393031710417156	0.5168319059999321	0.47758447826716427	0.8488182174023015	0.12434163600527214	0.4415808703838387	1.0377959372862309	0.030656910086312786	0.4490493150227757	0.9930271828413224	0.04043777656869735	0.5068652997015662	0.8119918496610514	0.04737763675499441	0.4216577002721591	1.0880599323787572	0.8791210765812172	0.30358134972913026	1.2978801150540489	0.5552025738735514	0.3332694214334842	1.2611762315959152	0.1463354344561272	0.32540789005649734	1.491396690909913	0.06012202193194129	0.3138410654936565	1.4541502393427193	0.07345304131476195	0.27516025144236833	1.2282184990610752	0.07009781345426368	0.34004692036615425	0.9895607088758123	1.590497288165502	0.3914759341794305	1.0787706808074788	1.8451736273791415	0.4253828969214656	1.2044843115445985	1.6696403352989526	0.3836383397753228	0.9599083647031592	1.4667030847606513	0.569309825052506	1.0965803884012357	1.1876857060284565	0.6615950165578154	1.3053137122919496	0.9867313819991087	0.6408329814312708	0.9480419416655977	1.466831706905818	0.20195574065382874	0.9511827385748358	1.1547447334046952	0.1496516085930006	0.9388766480269667	0.9114997603168941	0.12036696489149828
120	4.0	1.104587520657325	0.8907467958699924	0.4220904053900354	1.0825560768088716	0.8702107087553769	0.5161356096752122	0.9663428846370848	0.5142607507111961	0.47766659849209064	0.8683710656735243	0.12142860961269956	0.4488801801097201	1.0419324907874399	0.029335583647456635	0.45663229150839285	0.9883241099891861	0.03299674087387518	0.5148701472287148	0.808939617431643	0.04993976305408745	0.423537124200045	1.123561840657657	0.8718266618056287	0.30461631941581613	1.2708169073107998	0.5403868262037665	0.2933238608136693	1.3709515192338146	0.1616207720254915	0.3087024569499472	1.591819252142154	0.09939731836912614	0.29497270909364515	1.5555848969167227	0.1044903127706849	0.2509585546617229	1.3567874327716152	0.08709839580390594	0.3186479181934519	1.0351400795324945	1.5830818738016958	0.39131053247928804	1.129268343140447	1.8402323787428492	0.42946540306819664	1.2478847723256035	1.6600635768647463	0.38859624584014246	1.0097072080660339	1.4619789674371069	0.5656546050179482	1.144068638470166	1.1849016763058344	0.663611239507952	1.3717119261651252	1.0046640824910391	0.6405103560355402	0.9921853518039491	1.4592116559701467	0.19884417883258756	0.9879002361387161	1.1489981581576223	0.14797256317796534	0.9979456829399115	0.8850082913891856	0.10233706806866939
121	4.033333333333333	1.147029905363182	0.882875515387005	0.4220075656406476	1.1151127229971574	0.8620268348687955	0.5096892204059834	0.9901248986902088	0.509901314767498	0.47681617647208197	0.8756420748369543	0.12393350480485762	0.45306925109254464	1.0621517129407956	0.031368041259040726	0.45781942725109537	0.9820241875710422	0.02960463076574279	0.5123207153421949	0.8070641680380188	0.0493633823948436	0.4219768003277499	1.1646733629018977	0.858978682822796	0.30985783557696	1.3112988100852816	0.5149490474309946	0.29783719950033166	1.4651263705541304	0.1537522999096353	0.311878979802789	1.6700264961401037	0.12397640541080589	0.2922630177121271	1.633068973135498	0.11370944558712219	0.23970046185404578	1.4636206786400503	0.07658984316206847	0.32194609139448316	1.077225286959853	1.5753227463027122	0.3877287604410809	1.1809919708943273	1.8306280825451342	0.43379082703696925	1.2876536207708595	1.650442832351356	0.3890859855907973	1.0560061227766588	1.4542069165536298	0.5677564856201488	1.1989410130025946	1.1768183872456643	0.6660939265369361	1.4342967592202187	1.0069735249099847	0.6327233268011674	1.0357571887586254	1.4556459810638296	0.19593521915485426	0.9827081157077896	1.142897237490141	0.14731069899260452	1.0358925089251287	0.891626039197883	0.1315859513159922
122	4.066666666666666	1.191331781927794	0.875486846164225	0.41925963733675714	1.1615001791866557	0.8571621119550388	0.5094592449623984	1.0233278024642232	0.5022679753605881	0.47559934250749886	0.8859928282215486	0.13504840239798957	0.4606468080907982	1.0593091690516034	0.028377385568053293	0.4584094656501862	0.9819466572594262	0.02356342112433482	0.505388298459447	0.81830524976528	0.05713714419707793	0.4408829135045887	1.2092093946829616	0.8497203912118211	0.31313655352624287	1.3569095672519782	0.4972281373570473	0.29997924640634044	1.5317824062001406	0.13633170493811406	0.3145876489494466	1.7295017702320556	0.12301337373824692	0.3002736808551349	1.6952359899321654	0.10784947550429394	0.24338570069819304	1.5301358044543731	0.0491357940121628	0.3250110806327891	1.119300978601223	1.5650400568269947	0.38406688613561446	1.2094771594147429	1.8188387303734885	0.42360549936116354	1.331744636614603	1.6420998632574708	0.38187108711937867	1.1022712020132361	1.444500872506046	0.5620066073226132	1.2439564466255908	1.1655469324246366	0.6581373608157449	1.477811251620104	1.0029985570853566	0.6253406154757117	1.082370270842314	1.4449000274325803	0.192383074412245	1.0280758156511498	1.1307264134980555	0.14737931054153003	1.0731451349484578	0.8620171001938505	0.09503426750175947
123	4.1	1.2504632233812205	0.8655328286118532	0.4224051710617191	1.2250561762232282	0.8439703571215086	0.5110204815229835	1.0677089128958173	0.49597049549876004	0.4752199212909839	0.8682354654477457	0.14109693415269073	0.4374535126309023	1.0611742274035871	0.005513797661135018	0.467524433501543	0.9893941104280505	0.024341293136205644	0.5036282230814372	0.8028035269382466	0.06941615690998604	0.4225728292013741	1.2719042509281568	0.8390365192926207	0.31507002207370965	1.4042249873277453	0.49025281259950637	0.3021718413476744	1.5664616949772743	0.11900668477296755	0.3218971162507156	1.77267226509527	0.09838699109060328	0.31173088347735395	1.7854507829723651	0.053403310080785346	0.2655992286540209	1.5475927665722025	0.03521790871089187	0.33216005237399904	1.1646917298354174	1.5555878722620953	0.37844280796730756	1.2535773263628307	1.8127084568689562	0.42265125244902557	1.3723272479822068	1.6354489927079057	0.3851468089806965	1.144985723878037	1.435709657013704	0.5550380206402503	1.2858248652500446	1.1538091023190449	0.6475545362608908	1.577477295586636	1.0087270664300834	0.6310053008782586	1.125812013964466	1.4360538931626614	0.18941361713401572	1.0703391149996535	1.122633125521378	0.14432940503812644	1.1295385363997434	0.86690899770884	0.12600943032410794
